<svg id="Layer_1" data-name="Layer 1" xmlns="http://www.w3.org/2000/svg" viewBox="0 0 90.4 90.26"><defs><style>.cls-1{fill:none;stroke:#efefef;stroke-miterlimit:10;stroke-width:3px;}</style></defs><title>archive</title><circle class="cls-1" cx="45.13" cy="45.13" r="43.63"/><path class="cls-1" d="M1472.46,882" transform="translate(-1426.45 -850.84)"/><circle class="cls-1" cx="45.13" cy="45.07" r="22.48"/><path class="cls-1" d="M1475.15,873.36V866.7a3.33,3.33,0,0,0-3.39-3.24h-0.34a3.33,3.33,0,0,0-3.39,3.24v6.66" transform="translate(-1426.45 -850.84)"/><path class="cls-1" d="M1475.15,918.57v6.66a3.33,3.33,0,0,1-3.39,3.24h-0.34a3.33,3.33,0,0,1-3.39-3.24v-6.66" transform="translate(-1426.45 -850.84)"/><path class="cls-1" d="M1458.12,877.46l-4.71-4.71a3.33,3.33,0,0,0-4.69.11l-0.24.24a3.33,3.33,0,0,0-.11,4.69l4.71,4.71" transform="translate(-1426.45 -850.84)"/><path class="cls-1" d="M1490.08,909.43l4.71,4.71a3.33,3.33,0,0,1-.11,4.69l-0.24.24a3.33,3.33,0,0,1-4.69.11l-4.71-4.71" transform="translate(-1426.45 -850.84)"/><path class="cls-1" d="M1449,892.4h-6.66a3.33,3.33,0,0,0-3.24,3.39v0.34a3.33,3.33,0,0,0,3.24,3.39H1449" transform="translate(-1426.45 -850.84)"/><path class="cls-1" d="M1494.18,892.4h6.66a3.33,3.33,0,0,1,3.24,3.39v0.34a3.33,3.33,0,0,1-3.24,3.39h-6.66" transform="translate(-1426.45 -850.84)"/><path class="cls-1" d="M1453.08,909.43l-4.71,4.71a3.33,3.33,0,0,0,.11,4.69l0.24,0.24a3.33,3.33,0,0,0,4.69.11l4.71-4.71" transform="translate(-1426.45 -850.84)"/><path class="cls-1" d="M1485,877.46l4.71-4.71a3.33,3.33,0,0,1,4.69.11l0.24,0.24a3.33,3.33,0,0,1,.11,4.69l-4.71,4.71" transform="translate(-1426.45 -850.84)"/><circle class="cls-1" cx="45.27" cy="44.4" r="12.87"/><path class="cls-1" d="M1505.45,924.34h6.66a3.33,3.33,0,0,1,3.24,3.39v0.34a3.33,3.33,0,0,1-3.24,3.39h-14.8" transform="translate(-1426.45 -850.84)"/><path class="cls-1" d="M1505.45,868.22h6.66a3.33,3.33,0,0,0,3.24-3.39v-0.34a3.33,3.33,0,0,0-3.24-3.39h-14.8" transform="translate(-1426.45 -850.84)"/><path class="cls-1" d="M1439.92,867.13v-6.66a3.33,3.33,0,0,0-3.39-3.24h-0.34a3.33,3.33,0,0,0-3.39,3.24v14.8" transform="translate(-1426.45 -850.84)"/><path class="cls-1" d="M1439.92,925.81v6.66a3.33,3.33,0,0,1-3.39,3.24h-0.34a3.33,3.33,0,0,1-3.39-3.24V916.08" transform="translate(-1426.45 -850.84)"/></svg>