<svg id="Layer_1" data-name="Layer 1" xmlns="http://www.w3.org/2000/svg" viewBox="0 0 48.06 109.88"><defs><style>.cls-1,.cls-2{fill:none;stroke:#efefef;stroke-miterlimit:10;}.cls-1{stroke-width:3px;}.cls-2{stroke-width:2px;}</style></defs><title>location</title><path class="cls-1" d="M1025.67,1178.17l-15,40.22-15-40.22a7.6,7.6,0,0,1-7.57-7.57v-29.91a7.6,7.6,0,0,1,7.57-7.57h29.91a7.6,7.6,0,0,1,7.57,7.57v29.91A7.6,7.6,0,0,1,1025.67,1178.17Z" transform="translate(-986.68 -1131.61)"/><path class="cls-1" d="M1028.49,1241.49c0-4.85-8-8.77-17.9-8.77" transform="translate(-986.68 -1131.61)"/><path class="cls-1" d="M993.09,1241.49c0-4.85,8-8.77,17.9-8.77" transform="translate(-986.68 -1131.61)"/><polyline class="cls-1" points="33.74 15.74 22.12 31.23 14.72 21.9"/><path class="cls-2" d="M1021.89,1172.88l-11-1.7-11,1.7a5.57,5.57,0,0,1-5.56-5.56v-21.95a5.57,5.57,0,0,1,5.56-5.56h21.95a5.57,5.57,0,0,1,5.56,5.56v21.95A5.57,5.57,0,0,1,1021.89,1172.88Z" transform="translate(-986.68 -1131.61)"/></svg>