<svg id="Layer_1" data-name="Layer 1" xmlns="http://www.w3.org/2000/svg" viewBox="0 0 93.31 90.63"><defs><style>.cls-1,.cls-2{fill:none;stroke:#efefef;stroke-miterlimit:10;}.cls-1{stroke-width:3px;}.cls-2{stroke-width:2px;}</style></defs><title>notes</title><path class="cls-1" d="M885.65,867.08v26.74a27.46,27.46,0,0,1-27.38,27.38H828.35A27.7,27.7,0,0,1,801,893.82V863.9a27.46,27.46,0,0,1,27.38-27.38h31.3" transform="translate(-799.47 -832.07)"/><path class="cls-2" d="M887.84,854.95l-37.53,35.69c-5.06,4.81-18.86,10.34-29.08,10.14h0c0.2-9.94,6.53-23.73,11.59-28.54l37.53-35.69a12.73,12.73,0,0,1,17.95.45h0A12.73,12.73,0,0,1,887.84,854.95Z" transform="translate(-799.47 -832.07)"/><path class="cls-2" d="M863.88,842.7c9.67,10.17,17.67,18.23,17.88,18" transform="translate(-799.47 -832.07)"/><path class="cls-2" d="M859.42,846.94c9.67,10.17,17.67,18.23,17.88,18" transform="translate(-799.47 -832.07)"/><polyline class="cls-2" points="33.35 40.17 33.15 48.07 39.73 47.73 38.68 54.15 45.3 52.55 43.86 59.34 50.84 58.57"/><path class="cls-2" d="M822.65,891.89c4.09,4.31,7.33,7.86,7.23,8" transform="translate(-799.47 -832.07)"/></svg>