<svg id="Layer_1" data-name="Layer 1" xmlns="http://www.w3.org/2000/svg" viewBox="0 0 581.76 598.23"><defs><style>.cls-1{opacity:0.45;}.cls-2{fill:#231f20;stroke:#fff;}.cls-2,.cls-3,.cls-4{stroke-miterlimit:10;}.cls-3{fill:#3a3a3a;stroke:#cecece;stroke-width:2px;}.cls-4{fill:#3f3f3f;stroke:#bb2025;stroke-width:4px;}</style></defs><title>the-other-77000-landing</title><g class="cls-1"><path class="cls-2" d="M1159.18,1255.56" transform="translate(-1425.65 -657.33)"/></g><g class="cls-1"><path class="cls-2" d="M1471.57,1255.56" transform="translate(-1425.65 -657.33)"/></g><polyline class="cls-3" points="60.97 594.91 60.97 416.1 145.76 416.1 145.76 595.54"/><polyline class="cls-3" points="1.95 595.54 1.95 482.37 86.73 482.37 86.73 595.54"/><polyline class="cls-3" points="121.9 595.65 121.9 336.42 206.69 336.42 206.69 595.54"/><polyline class="cls-3" points="440.21 587.67 440.21 402.74 530.89 402.74 530.89 595.54"/><polyline class="cls-3" points="507.42 593.87 507.42 502.9 568.3 502.9 568.3 595.44"/><polyline class="cls-3" points="360.7 580.61 360.7 229.57 477.91 229.57 477.91 595.54"/><polyline class="cls-3" points="182.82 593.2 182.82 183.22 300.02 183.22 300.02 596.34"/><polyline class="cls-3" points="208.27 597.41 208.27 280.42 405.79 280.42 405.79 595.11"/><polyline class="cls-3" points="234.73 595.49 234.73 122.27 392.72 122.27 392.72 448.25"/><polyline class="cls-3" points="267 217.95 267 1 360.45 1 360.45 217.95"/><line class="cls-3" x1="301.86" y1="15.46" x2="301.86" y2="73.32"/><line class="cls-3" x1="313.72" y1="15.46" x2="313.72" y2="104.47"/><line class="cls-3" x1="325.59" y1="15.46" x2="325.59" y2="73.32"/><path class="cls-3" d="M1776.48,859a24.33,24.33,0,0,1,48.65,0" transform="translate(-1425.65 -657.33)"/><polyline class="cls-3" points="350.82 252.27 350.82 201.71 399.48 201.71 399.48 252.27"/><path class="cls-3" d="M1793.38,835.87s8.51-16,14.82,0" transform="translate(-1425.65 -657.33)"/><path class="cls-3" d="M1794.91,810.77l2-3.42s0.14-2.42,2.57-1.14,2.38,0.71,1.33-1.28,1.24-5.27,1.66-4,2,2.71,1.14,4.13-0.64,2.85.25,3.56,2.6-1,2.31,1,0.86,4.13-.71,4.56-2.42,3.28-2.42,3.28a12.63,12.63,0,0,1,1.14,4.42v5.42s-0.76,2.15-.36,2.41a4,4,0,0,0-5.2.58c-2.6,2.73-.57,0-0.57,0s-0.14-3.13.29-3.7,3-1,2.28-2.42a17.31,17.31,0,0,0-2.28-3.14s-1.71-3.36.43-5,2-2.88,2-2.88l-0.19-2.42s0.15-3-1.28-2.42S1794.77,813.05,1794.91,810.77Z" transform="translate(-1425.65 -657.33)"/><polyline class="cls-3" points="343.22 339.69 343.22 219.58 407.08 219.58 407.08 339.69"/><polyline class="cls-3" points="334.86 598.23 334.86 273.55 414.68 273.55 414.68 596.49"/><path class="cls-4" d="M1871.76,1196l-2.11-7.16s-16.21-13.4-19.16-20.77-44-36.5-44-36.5l-16-7.79c-1.84-.53-5.51-3.68-7.62-3.94s-6.57-5.78-9.45-6.3-8.67-3.41-8.67-3.41l-5-9.45s-11.29-22.06-12.34-24.16,0-4.46,0-5.51-3.68-8.93-2.89-11-1.31-11.82-1.31-13.13-2.89-13.13-4.61-14.71-0.65-5.25-.12-7.62-0.79-8.14-1.71-8.67-2-2.89-2-2.89a7.26,7.26,0,0,0,2-5.51c-0.4-3.15-1.7-11.82-1.7-11.82,0-4.46-1.31-6.83-1.58-6.57s-3.41-5.25-3.41-5.25-2.63,5.25-2.36,7.09-4.73,1.84-5.78,1.84-2.1,5.25-2.1,10.24-0.26,13.39-1.58,14.44-2.36,6.3-2.36,8.14,0.79,7.62,0,9.72,0.53,13.13,0,15.23,0,5.51-2.36,8.67-1.05,10.5-2.36,10.77-0.26,4.73-1.58,6.57-5.25,7.88-7.62,8.93-3.94,1.31-6,2.36-26.26,12.61-30.2,15.76c0,0-21.34,10.58-23.7,14.26,0,0-15.54.86-34.69,13.77s-50.37,21.2-63.37,25-113.19,95.94-113.19,95.94h81.51l479.6,0.41c-7.29-1.92-59.08-19-80.73-42.31C1896.81,1195.08,1871.76,1196,1871.76,1196Z" transform="translate(-1425.65 -657.33)"/><text x="-1425.65" y="-657.33"/></svg>